<svg version="1.0" xmlns="http://www.w3.org/2000/svg" width="800" height="800" viewBox="0 0 600 600"><path d="M0 300v300h600V0H0v300zm580 0v280H20V20h560v280z"/><path d="M100 90v10h400V80H100v10zM288 153.6c-10.4 1.2-23.6 4-32 6.6-44.8 14.2-80 49-95.2 93.8-9.9 29.3-9.8 63.8.2 93.4 14.6 43.4 49.2 78 92.6 92.6 29.6 10 64.1 10.1 93.4.2 30.8-10.4 57.8-31 75.3-57.3 8.3-12.5 13.4-22.7 17.9-35.9 9.9-29.3 9.8-63.8-.2-93.4-17-50.3-59.7-87.5-111.9-97.6-10.1-2-32.4-3.3-40.1-2.4zm-9.3 121.9c5.2 2.2 7.2 4.2 9.9 10 2.6 5.6 3.2 13.9 1.3 19.6-2.9 8.6-10.2 13.8-19.2 13.9-8.5 0-15-3.9-19-11.5-2.5-4.9-2.8-16.1-.4-21.5 1.8-4.1 7.1-9.4 10.7-10.9 3.8-1.5 12.6-1.3 16.7.4zm47.6-.1c3.8 1.6 7.2 5.1 8.6 8.9 1 2.5.8 2.9-1.7 3.8-2.2.9-2.9.7-3.7-.7-.5-1-2.2-3.1-3.7-4.6-2.3-2.4-3.4-2.8-8.1-2.8-7.6 0-11.6 2.8-14 9.9-4.5 13.5 2.8 24 15.8 22.9 7.3-.6 10.5-3 10.5-7.9V301h-6.5c-6.3 0-6.5-.1-6.5-2.5 0-2.5 0-2.5 9.5-2.5h9.5v16.9l-4.6 2.7c-9.7 5.7-24.9 3.7-30.7-4-8.4-11-5.2-29.3 6.2-35.3 5.1-2.7 14.2-3.1 19.4-.9zm45.4.1c5.2 2.2 7.2 4.2 9.9 10 4 8.5 3 19.1-2.4 26.4-6.3 8.5-21.8 9.5-30 1.8-6.1-5.6-8.5-17.6-5.4-26.8 1.4-4 6.8-9.7 11-11.5 3.9-1.8 12.6-1.7 16.9.1zM224 294v19h21v5h-28v-43h7v19z"/><path d="M263.5 281.2c-4.8 2.8-7.5 8.3-7.5 15.2 0 10.2 5.5 16.6 14.1 16.6 9 0 14.2-6.1 14.2-16.5 0-7.2-2.1-11.8-6.6-14.5-3.6-2.2-11-2.6-14.2-.8zM355.3 282.1c-8.5 5.4-8.2 24 .6 29.2 3.9 2.3 10.8 2.2 14.8-.3 4.5-2.7 6.6-7.3 6.6-14.5s-2.1-11.8-6.6-14.5c-4.2-2.6-11.2-2.6-15.4.1zM100 510v10h400v-20H100v10z"/></svg>